<svg width="944" height="244" viewBox="0 0 944 244" fill="none" xmlns="http://www.w3.org/2000/svg">
<path d="M101.002 242.241L86.9086 244.003C91.9421 233.181 95.4655 221.604 95.7172 208.265C42.8653 204.49 0.583785 165.229 0.583785 118.165C0.583785 71.3535 44.1237 35.3639 92.1938 35.3639H95.7172V3.14937L110.314 0.884286C105.533 10.6996 102.512 23.5351 101.506 35.6155C117.11 36.3706 123.653 39.139 134.727 39.139C151.841 39.139 171.975 35.6155 172.478 18.7533H177.008V26.0519C177.008 54.7429 164.676 75.1286 140.767 75.1286C126.17 75.1286 115.851 69.5918 103.771 69.5918C102.764 69.5918 102.009 69.5918 101.002 69.8434V108.35C116.606 108.35 137.747 103.065 152.848 103.065C174.995 103.065 187.831 116.907 187.831 137.293C187.831 178.064 150.079 208.517 104.023 208.517H101.002V242.241ZM43.3687 121.94C43.3687 171.017 57.4625 199.708 95.7172 203.232V142.326C75.0798 140.816 63.5027 123.954 63.5027 105.33C63.5027 81.9239 80.1133 68.8367 95.7172 65.5649V40.6491C93.4521 40.3974 93.2004 40.3974 92.1938 40.3974C61.741 40.3974 43.3687 69.3401 43.3687 121.94ZM126.17 68.3334C118.871 60.0281 116.606 45.4309 101.002 41.4041V64.5582H103.771C112.328 64.5582 119.375 66.5717 126.17 68.3334ZM79.1066 91.7392C79.1066 102.31 84.8952 107.091 95.7172 108.098V70.5985C85.6502 73.6186 79.1066 81.9239 79.1066 91.7392ZM104.023 203.483C144.291 203.483 157.378 179.322 157.378 162.963C157.378 147.863 151.086 139.558 133.972 139.558C121.64 139.558 111.321 142.074 101.002 142.326V203.483H104.023ZM193.259 61.2865C200.809 47.1926 209.366 35.6155 218.427 26.5552L233.024 37.8806L196.279 64.0549L193.259 61.2865ZM224.467 207.51C213.393 201.722 201.565 190.396 195.524 179.826C198.293 170.514 199.299 162.208 199.299 145.094V110.615C194.014 106.588 190.491 104.323 185.709 102.31C183.947 104.071 182.185 105.833 180.424 108.098L176.9 104.323C184.954 97.0244 192.253 88.7191 200.809 78.6521L217.168 87.2091C226.48 91.9909 227.487 98.5345 227.487 106.085V134.272C227.487 148.115 226.732 161.202 224.719 169.507C227.739 175.044 232.017 178.819 239.568 184.104C241.329 182.342 243.091 180.329 244.853 178.064L248.376 181.839C240.323 189.138 233.024 197.443 224.467 207.51ZM276.466 36.6222V134.272C276.466 146.856 275.711 160.698 273.697 169.507C276.466 174.792 279.737 179.071 286.029 184.104C287.791 182.342 289.553 180.329 291.314 178.064L294.838 181.839C286.784 189.138 279.486 197.443 270.929 207.51C260.61 202.225 250.543 190.144 244.503 179.826C247.271 170.514 248.278 162.208 248.278 145.094V54.4912L234.687 47.9477C232.926 49.7094 231.164 51.9745 229.151 54.2395L225.627 50.4644C233.681 43.1658 240.979 34.8605 249.536 24.7935L271.935 34.6088V7.93121L279.486 5.66612C277.472 16.7399 276.466 22.2767 276.466 36.6222ZM332.239 207.51C317.139 203.232 297.256 191.151 290.713 179.826C293.481 170.765 294.488 162.46 294.488 145.85C290.461 146.101 286.183 146.856 280.897 147.611L284.169 140.564H294.488V107.091L313.615 101.806L329.471 78.6521L354.135 92.7459C360.427 96.2694 363.447 104.071 357.407 111.118C348.598 121.689 338.531 131.001 328.212 140.564H357.91L354.638 146.605C347.843 145.85 336.014 145.094 322.424 145.094C321.921 153.651 321.166 161.453 319.907 166.99C325.696 173.282 334.001 179.071 346.585 184.356C348.598 182.091 350.863 179.574 353.38 176.554L356.904 180.329C352.373 184.608 348.095 189.138 343.565 194.171L332.239 207.51ZM322.676 139.054C329.219 132.762 335.511 126.974 342.306 120.179C336.266 114.893 330.226 110.867 322.676 107.091V139.054ZM450.318 207.51C439.245 201.722 427.416 190.396 421.376 179.826C424.144 170.514 425.151 162.208 425.151 145.094V110.615C419.111 107.595 413.07 105.078 406.527 103.065C404.513 105.581 402.248 108.35 399.983 111.622V134.272C399.983 149.373 399.48 161.202 397.215 169.507C400.487 175.799 405.772 179.826 415.084 186.118L396.963 207.51C385.889 201.722 374.061 190.396 368.02 179.826C370.789 170.514 371.796 162.208 371.796 145.094V108.35L358.205 101.806C356.443 103.568 354.682 105.833 352.668 108.098L349.145 104.323C357.198 97.0244 364.497 88.7191 373.054 78.6521L399.983 90.4808V102.561C405.772 93.2493 412.315 85.1957 418.859 78.6521L443.02 88.4674C451.828 91.9909 453.339 99.0378 453.339 106.085V134.272C453.339 149.373 452.835 161.202 450.57 169.507C453.59 175.044 457.869 178.819 465.419 184.104C467.181 182.342 468.942 180.329 470.704 178.064L474.228 181.839C466.174 189.138 458.875 197.443 450.318 207.51ZM510.349 207.51C494.997 203.232 472.346 191.151 465.802 179.826C468.571 170.514 469.578 162.208 469.578 145.094V106.84L485.685 102.31L501.54 78.6521L532.748 86.9574C548.604 91.2359 551.12 94.7593 551.12 121.185V167.494C533.251 183.349 524.443 191.654 510.349 207.51ZM494.997 166.99C500.785 173.534 509.342 179.071 522.429 184.859C523.184 169.759 523.688 155.665 523.688 140.816C523.688 132.007 523.436 123.199 523.184 113.635C516.138 110.867 506.574 108.35 497.765 105.833V134.272C497.765 147.611 497.01 155.917 494.997 166.99ZM673.11 242.241L659.017 244.003C664.302 232.678 667.825 220.849 667.825 206.755V121.689H652.725C652.725 147.863 653.731 180.581 656.248 205.748V206H596.853V200.966H616.987V166.235C616.987 89.2225 614.722 69.8434 610.695 49.4577H595.091V44.4242C622.02 44.6759 645.426 40.9007 655.493 37.8806C653.48 64.3066 652.725 80.1621 652.725 115.648V116.655H667.825V3.14937L682.422 0.884286C676.634 12.9647 673.11 29.827 673.11 44.1725V56.7563C677.389 42.9141 685.443 35.3639 699.536 35.3639C732.254 35.3639 759.687 48.9544 759.687 76.387C759.687 101.303 738.798 116.152 700.795 119.172C742.321 119.172 764.72 135.782 764.72 162.963C764.72 195.933 736.281 208.517 703.815 208.517C686.953 208.517 677.892 200.463 673.11 185.614V242.241ZM673.11 109.357V116.655H684.939C708.597 116.655 716.902 103.065 716.902 78.6521C716.902 53.9879 709.352 40.6491 696.516 40.6491C677.137 40.6491 673.11 69.3401 673.11 109.357ZM699.788 203.232C713.63 203.232 721.936 188.383 721.936 163.215C721.936 135.782 712.372 121.689 684.939 121.689H673.11V135.782C673.11 175.044 677.641 203.232 699.788 203.232ZM849.02 207.51C838.953 202.225 828.383 192.661 822.091 183.098C816.302 191.654 810.01 199.96 802.963 207.51C790.883 202.98 777.292 190.396 771 179.826C773.517 171.017 774.776 163.467 774.776 147.611V141.319L791.135 136.537C780.564 133.517 775.531 126.219 775.531 118.165C775.531 111.873 779.557 104.575 784.843 98.0311L800.698 78.6521L841.721 87.2091C849.02 88.7191 852.04 95.5144 852.04 106.085V134.524C852.04 147.611 851.033 159.692 849.272 169.507C852.292 175.044 856.57 178.819 864.12 184.104C865.882 182.342 867.644 180.329 869.406 178.064L872.929 181.839C864.876 189.138 857.577 197.443 849.02 207.51ZM806.738 132.762C811.772 132.762 818.064 131.756 823.852 129.491V110.615C812.527 107.091 801.453 104.071 789.624 102.561C787.108 107.343 786.101 111.622 786.101 114.138C786.101 124.205 790.631 132.762 806.738 132.762ZM799.44 168.249C803.467 174.037 807.997 178.316 815.547 182.594C822.342 172.779 823.852 156.168 823.852 144.843V134.524C815.547 137.544 809.255 138.048 802.712 138.048H802.208V141.319C802.208 150.38 800.95 161.705 799.44 168.249ZM898.201 207.51C887.127 201.722 875.298 190.396 869.258 179.826C872.027 170.514 873.033 162.208 873.033 145.094V108.35L859.443 101.806C857.681 103.568 855.919 105.833 853.906 108.098L850.383 104.323C858.436 97.0244 865.735 88.7191 874.292 78.6521L901.221 90.4808V103.316C907.261 93.7526 913.805 85.4473 920.6 78.6521L943.251 96.0177L927.899 115.9V133.266L921.858 135.279C922.613 129.994 923.117 124.709 923.117 116.655C918.335 111.873 912.798 107.846 907.261 104.323C905.248 106.84 903.234 109.357 901.221 112.377V134.272C901.221 148.115 900.718 160.195 898.453 169.507C901.221 175.044 905.751 178.819 913.05 183.853C915.063 181.587 917.077 179.322 919.342 176.554L922.865 180.329C918.335 184.608 914.056 189.138 909.526 194.171L898.201 207.51Z" fill="#431407"/>
</svg>
